<svg width="15" height="15" viewBox="0 0 15 15" fill="none" xmlns="http://www.w3.org/2000/svg">
<path d="M4.50416 15C4.09128 15 3.73795 14.8533 3.44418 14.5597C3.14991 14.2657 3.00277 13.9125 3.00277 13.5C3.00277 13.0875 3.14991 12.7343 3.44418 12.4403C3.73795 12.1467 4.09128 12 4.50416 12C4.91704 12 5.27037 12.1467 5.56414 12.4403C5.85841 12.7343 6.00555 13.0875 6.00555 13.5C6.00555 13.9125 5.85841 14.2657 5.56414 14.5597C5.27037 14.8533 4.91704 15 4.50416 15ZM12.0111 15C11.5982 15 11.2449 14.8533 10.9511 14.5597C10.6568 14.2657 10.5097 13.9125 10.5097 13.5C10.5097 13.0875 10.6568 12.7343 10.9511 12.4403C11.2449 12.1467 11.5982 12 12.0111 12C12.424 12 12.7776 12.1467 13.0718 12.4403C13.3656 12.7343 13.5125 13.0875 13.5125 13.5C13.5125 13.9125 13.3656 14.2657 13.0718 14.5597C12.7776 14.8533 12.424 15 12.0111 15ZM3.86607 3L5.66774 6.75H10.9226L12.987 3H3.86607ZM3.15291 1.5H14.2256C14.5134 1.5 14.7324 1.628 14.8825 1.884C15.0326 2.1405 15.0389 2.4 14.9013 2.6625L12.2363 7.4625C12.0987 7.7125 11.914 7.90625 11.6823 8.04375C11.4511 8.18125 11.1978 8.25 10.9226 8.25H5.32992L4.50416 9.75H13.5125V11.25H4.50416C3.94114 11.25 3.51575 11.003 3.22798 10.509C2.94022 10.0155 2.9277 9.525 3.19045 9.0375L4.20388 7.2L1.50139 1.5H0V0H2.43975L3.15291 1.5ZM5.66774 6.75H10.9226H5.66774Z" fill="#3E6063"/>
</svg>
